<?xml version="1.0" standalone="no"?><svg xmlns="http://www.w3.org/2000/svg" viewBox="0 0 1440 320"><path fill="#f3f4f5" fill-opacity="1" d="M0,160L0,64L55.4,64L55.4,288L110.8,288L110.8,64L166.2,64L166.2,224L221.5,224L221.5,128L276.9,128L276.9,0L332.3,0L332.3,224L387.7,224L387.7,288L443.1,288L443.1,192L498.5,192L498.5,192L553.8,192L553.8,64L609.2,64L609.2,64L664.6,64L664.6,192L720,192L720,64L775.4,64L775.4,128L830.8,128L830.8,256L886.2,256L886.2,96L941.5,96L941.5,192L996.9,192L996.9,96L1052.3,96L1052.3,64L1107.7,64L1107.7,96L1163.1,96L1163.1,160L1218.5,160L1218.5,160L1273.8,160L1273.8,192L1329.2,192L1329.2,0L1384.6,0L1384.6,160L1440,160L1440,320L1384.6,320L1384.6,320L1329.2,320L1329.2,320L1273.8,320L1273.8,320L1218.5,320L1218.5,320L1163.1,320L1163.1,320L1107.7,320L1107.7,320L1052.3,320L1052.3,320L996.9,320L996.9,320L941.5,320L941.5,320L886.2,320L886.2,320L830.8,320L830.8,320L775.4,320L775.4,320L720,320L720,320L664.6,320L664.6,320L609.2,320L609.2,320L553.8,320L553.8,320L498.5,320L498.5,320L443.1,320L443.1,320L387.7,320L387.7,320L332.3,320L332.3,320L276.9,320L276.9,320L221.5,320L221.5,320L166.2,320L166.2,320L110.8,320L110.8,320L55.4,320L55.4,320L0,320L0,320Z"></path></svg>